<?xml version="1.0" standalone="no"?>
<!DOCTYPE svg PUBLIC "-//W3C//DTD SVG 20010904//EN"
 "http://www.w3.org/TR/2001/REC-SVG-20010904/DTD/svg10.dtd">
<svg version="1.0" xmlns="http://www.w3.org/2000/svg"
 width="200.000000pt" height="200.000000pt" viewBox="0 0 200.000000 200.000000"
 preserveAspectRatio="xMidYMid meet">
<metadata>
Created by potrace 1.11, written by Peter Selinger 2001-2013
</metadata>
<g transform="translate(0.000000,200.000000) scale(0.100000,-0.100000)"
fill="#000000" stroke="none">
<path d="M827 1984 c-538 -97 -895 -601 -795 -1123 47 -246 205 -483 412 -618
39 -25 74 -49 79 -53 4 -3 1 -28 -7 -56 -8 -27 -16 -67 -18 -89 l-3 -40 508
-3 509 -2 -7 52 c-4 29 -13 72 -20 95 l-13 42 71 43 c144 87 300 269 369 430
55 131 70 209 71 368 1 121 -3 160 -22 234 -52 200 -145 347 -324 512 -54 49
-185 123 -285 161 -149 56 -368 75 -525 47z"/>
</g>
</svg>
